<svg xmlns="http://www.w3.org/2000/svg" viewBox="0 0 800 1100" width="100%" height="100%">
  <!-- Define grass pattern -->
  <defs>
    <pattern id="grass-pattern" patternUnits="userSpaceOnUse" width="30" height="30" patternTransform="rotate(90)">
      <line x1="0" y1="0" x2="0" y2="30" stroke="#0a2316" stroke-width="1.5" stroke-opacity="0.1" />
    </pattern>
    
    <!-- Grass texture - horizontal lines (mowing patterns) -->
    <pattern id="grass-texture" patternUnits="userSpaceOnUse" width="100" height="100">
      <rect width="100" height="100" fill="#0a2010" />
      <rect width="100" height="33" fill="#0a2010" fill-opacity="0.7" />
      <rect y="33" width="100" height="34" fill="#0a2010" fill-opacity="0.85" />
      <rect y="67" width="100" height="33" fill="#0a2010" fill-opacity="0.7" />
    </pattern>
  </defs>
  
  <!-- Main field -->
  <rect width="800" height="900" fill="url(#grass-texture)" />
  <rect width="800" height="900" fill="url(#grass-pattern)" />
  
  <!-- Field boundaries - Thicker and more visible white lines -->
  <rect x="60" y="60" width="680" height="780" stroke="#ffffff" stroke-width="4" fill="none" />
  
  <!-- Horizontal center line -->
  <line x1="60" y1="450" x2="740" y2="450" stroke="#ffffff" stroke-width="4" />
  
  <!-- Center circle -->
  <circle cx="400" cy="450" r="91.5" stroke="#ffffff" stroke-width="4" fill="none" />
  <circle cx="400" cy="450" r="5" fill="#ffffff" />
  
  <!-- Goal areas (smaller box) - Top and Bottom -->
  <rect x="300" y="60" width="200" height="60" stroke="#ffffff" stroke-width="4" fill="none" />
  <rect x="300" y="780" width="200" height="60" stroke="#ffffff" stroke-width="4" fill="none" />
  
  <!-- Penalty areas (larger box) - Top and Bottom -->
  <rect x="200" y="60" width="400" height="165" stroke="#ffffff" stroke-width="4" fill="none" />
  <rect x="200" y="675" width="400" height="165" stroke="#ffffff" stroke-width="4" fill="none" />
  
  <!-- Penalty spots -->
  <circle cx="400" cy="180" r="5" fill="#ffffff" />
  <circle cx="400" cy="720" r="5" fill="#ffffff" />
  
  <!-- Penalty arcs -->
  <path d="M 309 180 A 91.5 91.5 0 0 1 491 180" stroke="#ffffff" stroke-width="4" fill="none" />
  <path d="M 309 720 A 91.5 91.5 0 0 0 491 720" stroke="#ffffff" stroke-width="4" fill="none" />
  
  <!-- Corner arcs - More visible -->
  <path d="M 60 80 A 20 20 0 0 1 80 60" stroke="#ffffff" stroke-width="4" fill="none" />
  <path d="M 720 60 A 20 20 0 0 1 740 80" stroke="#ffffff" stroke-width="4" fill="none" />
  <path d="M 60 820 A 20 20 0 0 0 80 840" stroke="#ffffff" stroke-width="4" fill="none" />
  <path d="M 720 840 A 20 20 0 0 0 740 820" stroke="#ffffff" stroke-width="4" fill="none" />
  
  <!-- Goal lines emphasized - To match reference -->
  <line x1="300" y1="60" x2="500" y2="60" stroke="#ffffff" stroke-width="6" />
  <line x1="300" y1="840" x2="500" y2="840" stroke="#ffffff" stroke-width="6" />
  
  <!-- Add small marks along sidelines -->
  <line x1="60" y1="225" x2="70" y2="225" stroke="#ffffff" stroke-width="4" />
  <line x1="60" y1="675" x2="70" y2="675" stroke="#ffffff" stroke-width="4" />
  <line x1="740" y1="225" x2="730" y2="225" stroke="#ffffff" stroke-width="4" />
  <line x1="740" y1="675" x2="730" y2="675" stroke="#ffffff" stroke-width="4" />
</svg> 